# 
# 
mtllib trash_can.mtl
v 0.187866 1.249022 0.302490
v 0.099121 1.291015 -0.305420
v 0.223022 1.213866 -0.305420
v 0.107666 1.300780 0.305664
v -0.105347 1.291015 -0.305420
v -0.105286 1.291015 0.302734
v 0.243774 1.185546 0.302490
v 0.291504 1.083007 -0.308838
v 0.291504 1.083007 0.306885
v -0.111145 1.300780 0.305664
v -0.051086 1.308593 -0.001064
v -0.108215 1.300780 0.041199
v 0.053070 1.310546 0.305664
v -0.205933 1.252929 0.305664
v -0.204590 1.251952 0.092712
v -0.261963 1.187499 0.089356
v -0.262695 1.186522 0.305664
v -0.284912 1.133788 0.305664
v -0.288086 1.129882 0.037079
v -0.295166 1.083007 0.306885
v -0.295166 1.083007 -0.308838
v -0.288086 1.129882 -0.039215
v -0.262695 1.186522 -0.307861
v -0.261963 1.187499 -0.091492
v -0.205933 1.252929 -0.307861
v -0.204590 1.251952 -0.094849
v -0.108215 1.300780 -0.043304
v -0.111145 1.300780 -0.307861
v 0.053070 1.310546 -0.307861
v 0.104675 1.300780 -0.043304
v 0.202393 1.252929 -0.307861
v 0.201050 1.251952 -0.094849
v 0.258301 1.187499 -0.091492
v 0.259033 1.186522 -0.307861
v 0.284424 1.129882 -0.039215
v 0.284424 1.129882 0.037079
v 0.281494 1.133788 0.305664
v 0.258301 1.187499 0.089356
v 0.259033 1.186522 0.305664
v 0.202393 1.252929 0.305664
v 0.201050 1.251952 0.092712
v 0.104675 1.300780 0.041199
v -0.249146 1.183593 -0.305420
v -0.229004 1.211913 0.302490
v -0.271973 1.132812 -0.305176
v -0.287842 1.064452 -0.251221
v -0.201294 0.096069 -0.217163
v -0.201294 0.096069 0.207764
v -0.287842 1.064452 -0.301514
v -0.287842 -0.000025 -0.301514
v -0.287842 0.059021 -0.256348
v -0.287842 1.064452 0.241699
v -0.287842 -0.000025 0.292236
v -0.287842 0.059021 0.246948
v -0.287842 1.064452 0.292236
v 0.283203 1.064452 -0.257324
v 0.196655 0.096069 0.201538
v 0.196655 0.096069 -0.223389
v 0.283203 1.064452 0.235474
v 0.283203 0.059021 -0.262451
v 0.283203 1.064452 -0.307861
v 0.283203 -0.000025 -0.307861
v 0.283203 0.059021 0.240723
v 0.283203 -0.000025 0.282471
v 0.283203 1.064452 0.282471
v 0.244629 1.064452 0.292481
v -0.214233 0.096069 0.205933
v 0.210693 0.096069 0.205933
v 0.249878 0.059021 0.292480
v 0.283203 1.064452 0.292481
v 0.283203 -0.000025 0.292480
v -0.248169 1.064452 0.292481
v -0.287842 -0.000025 0.292480
v -0.287842 1.064452 0.292481
v -0.253418 0.059021 0.292480
v 0.244629 1.064452 -0.307617
v 0.210693 0.096069 -0.221313
v -0.214233 0.096069 -0.221313
v 0.283203 1.064452 -0.307617
v 0.283203 -0.000025 -0.307617
v -0.248169 1.064452 -0.307617
v 0.249878 0.059021 -0.307617
v -0.287842 -0.000025 -0.307617
v -0.253418 0.059021 -0.307617
v -0.287842 1.064452 -0.307617
v -0.308105 0.000000 0.312256
v -0.308105 -0.000000 -0.324463
v 0.308105 -0.000000 -0.324463
v 0.308105 0.000000 0.312256
v -0.288086 1.303710 0.036224
v -0.288086 1.303710 -0.038361
v -0.288086 1.251952 0.085205
v -0.288086 1.251952 -0.087280
v -0.288086 1.185546 0.085327
v -0.288086 1.185546 -0.087463
v -0.257568 1.005858 0.310303
v -0.262939 0.222046 0.288574
v 0.254150 0.227295 0.310303
v 0.259521 1.011718 0.288574
v -0.257568 0.227295 -0.327148
v -0.262939 1.011718 -0.305420
v 0.254150 1.005858 -0.327148
v 0.259521 0.222046 -0.305420
v 0.284424 1.303710 0.036224
v 0.284424 1.185546 -0.087463
v 0.284424 1.185546 0.085327
v 0.284424 1.251952 0.085205
v 0.284424 1.251952 -0.087280
v 0.284424 1.303710 -0.038361
v -0.001757 0.553710 -0.001064
v -0.152588 0.999511 -0.151855
v -0.152588 0.999511 0.149780
v 0.149048 0.999511 -0.151855
v 0.149048 0.999511 0.149780
v -0.300537 1.080077 0.297607
v -0.300537 1.080077 -0.299805
v 0.297119 1.080077 0.297607
v 0.297119 1.080077 -0.299805
v 0.308105 0.026291 -0.324463
v 0.308105 0.026291 0.312256
v -0.308105 0.026291 -0.324463
v -0.308105 0.026291 0.312256
v -0.308105 1.058593 -0.312256
v -0.308105 1.084960 -0.312256
v 0.308105 1.084960 -0.312256
v 0.308105 1.058593 -0.312256
v -0.308105 1.058593 0.324463
v -0.308105 1.084960 0.324463
v 0.308105 1.058593 0.324463
v 0.308105 1.084960 0.324463
v -0.291504 0.000556 -0.310791
v -0.286621 0.000976 -0.270020
v -0.286621 1.063476 -0.270019
v -0.291504 1.063476 -0.310791
v 0.253662 1.063476 0.297119
v 0.253662 0.000976 0.297119
v 0.292969 0.000556 0.296143
v 0.292969 1.063476 0.296143
v -0.252197 1.063476 -0.311768
v -0.252197 0.000976 -0.311768
v -0.291504 0.000556 0.296143
v -0.252197 0.000976 0.297119
v -0.252197 1.063476 0.297119
v -0.291504 1.063476 0.296143
v 0.291992 0.000556 -0.309814
v 0.252686 0.000976 -0.311035
v 0.252686 1.063476 -0.311035
v 0.291992 1.063476 -0.309814
v 0.292969 0.000556 -0.310791
v 0.253662 0.000976 -0.311768
v 0.253662 1.063476 -0.311768
v 0.292969 1.063476 -0.310791
v 0.283447 1.088866 -0.287598
v 0.283447 1.088866 0.299805
v -0.283447 1.088866 -0.287598
v 0.283447 0.030655 -0.299805
v 0.283447 0.030655 0.287598
v -0.283447 0.030655 -0.299805
v -0.283447 1.052733 0.299805
v 0.283447 1.052733 0.299805
v -0.283447 1.052733 -0.287598
v 0.283447 1.052733 -0.287598
v -0.283447 1.088866 0.299805
v -0.283447 0.030655 0.287598
v 0.288086 0.000976 -0.270020
v 0.288086 1.063476 -0.270019
v 0.288086 0.000976 0.255371
v 0.288086 1.063476 0.255371
v -0.286621 0.000976 0.255371
v -0.286621 1.063476 0.255371
v 0.287109 1.063476 -0.269287
v -0.262939 1.011718 0.288574
v 0.259521 1.011718 -0.305420
v -0.262939 0.222046 -0.305420
v 0.259521 0.222046 0.288574
vt 0.752000 0.899700
vt 0.903800 0.948500
vt 0.903800 0.876400
vt 0.752000 0.948500
vt 0.752000 0.860200
vt 0.904300 0.812700
vt 0.752000 0.809200
vt 0.319300 0.948500
vt 0.630400 0.976100
vt 0.587400 0.949600
vt 0.319600 0.973700
vt 0.319300 0.900000
vt 0.535200 0.900300
vt 0.538600 0.860600
vt 0.319300 0.859900
vt 0.319300 0.833500
vt 0.591800 0.832300
vt 0.318800 0.807600
vt 0.942400 0.811400
vt 0.668900 0.832200
vt 0.940900 0.860100
vt 0.721700 0.860700
vt 0.940900 0.899900
vt 0.725100 0.900300
vt 0.672900 0.949700
vt 0.940900 0.948400
vt 0.940900 0.973600
vt 0.903800 0.860400
vt 0.752000 0.876500
vt 0.752000 0.808700
vt 0.903800 0.833700
vt 0.904300 0.812500
vt 0.903800 0.899800
vt 0.256600 0.803700
vt 0.323000 0.340800
vt 0.762700 0.340800
vt 0.203600 0.803700
vt 0.203600 0.279300
vt 0.256600 0.309600
vt 0.811500 0.803700
vt 0.865700 0.279300
vt 0.811500 0.309600
vt 0.865700 0.803700
vt 0.206800 0.278800
vt 0.207200 0.803700
vt 0.853000 0.803700
vt 0.854500 0.277800
vt 0.213600 0.277800
vt 0.215100 0.803700
vt 0.216200 0.803700
vt 0.214600 0.277800
vt 0.855500 0.277800
vt 0.854000 0.803700
vt 0.230500 0.790200
vt 0.839400 0.790200
vt 0.839400 0.507600
vt 0.230500 0.507600
vt 0.039900 0.887800
vt 0.268300 0.858300
vt 0.211800 0.839400
vt 0.214200 0.882400
vt 0.037800 0.850100
vt 0.041600 0.923800
vt 0.035900 0.813600
vt 0.122700 0.922700
vt 0.116800 0.808000
vt 0.063600 0.956500
vt 0.056800 0.779200
vt 0.037900 0.957000
vt 0.020000 0.993400
vt 0.031100 0.780200
vt 0.015900 0.744100
vt 0.959000 0.260300
vt 0.127100 0.274900
vt 0.135300 0.018600
vt 0.959000 0.018600
vt 0.184800 0.995900
vt 0.184000 0.917200
vt 0.257800 0.917200
vt 0.304400 0.942500
vt 0.137300 0.942500
vt 0.137500 0.972300
vt 0.304400 0.972300
vt 0.257100 0.995900
vt 0.017800 0.668500
vt 0.017800 0.737100
vt 0.017800 0.599900
vt 0.006900 0.668500
vt 0.006900 0.737100
vt 0.006900 0.599900
vt 0.194700 0.532700
vt 0.194700 0.804400
vt 0.027200 0.737100
vt 0.027200 0.599900
vt 0.058900 0.551800
vt 0.058900 0.281700
vt 0.084700 0.281700
vt 0.084700 0.551800
vt 0.944800 0.284200
vt 0.986800 0.284200
vt 0.986800 0.767600
vt 0.944800 0.767700
vt 0.980500 0.992700
vt 0.992200 0.928600
vt 0.980500 0.944600
vt 0.980500 0.969700
vt 0.980500 0.905900
vt 0.992200 0.859000
vt 0.980500 0.859000
vt 0.980500 0.834700
vt 0.959500 0.810300
vt 0.970700 0.874400
vt 0.959500 0.858400
vt 0.959500 0.897000
vt 0.970700 0.944000
vt 0.891100 0.767600
vt 0.891100 0.284200
vt 0.931200 0.284200
vt 0.931200 0.767700
vt 0.921400 0.284200
vt 0.881300 0.284200
vt 0.881300 0.767600
vt 0.921400 0.767700
vt 0.105300 0.281700
vt 0.129600 0.292500
vt 0.129600 0.541000
vt 0.105300 0.551800
vt 0.041200 0.551800
vt 0.016500 0.541000
vt 0.016500 0.292500
vt 0.041200 0.281700
vt 1.596700 0.767600
vt 1.554700 0.284200
vt 1.554700 0.767700
vt 0.992200 0.944600
vt 0.992200 0.905900
vt 0.959500 0.968300
vt 0.970700 0.858400
vt 0.970700 0.833300
vt 0.959500 0.944000
vt 0.971700 0.264200
vt 0.977500 0.274900
vt 0.995600 0.264600
vt 0.971700 0.261700
vt 0.995600 0.013200
vt 0.132800 0.014200
vt 0.127100 0.003400
vt 0.977500 0.003400
vt 0.099100 0.013200
vt 0.123200 0.016100
vt 0.099100 0.264600
vn -0.531205 -0.691519 0.489486
vn -0.169500 -0.454939 -0.874233
vn -0.558550 -0.502945 -0.659566
vn -0.006592 -0.546312 0.837519
vn 0.111179 -0.760704 -0.639454
vn 0.212439 -0.649892 0.729698
vn -0.587512 -0.358257 0.725547
vn 0.707114 -0.202338 -0.677480
vn 0.701956 -0.048677 0.710501
vn -0.166295 0.764977 0.622181
vn -0.029511 0.999359 0.019288
vn -0.197699 0.940275 0.277078
vn 0.054598 0.804071 0.591968
vn -0.457137 0.588305 0.666982
vn -0.426771 0.746940 0.509812
vn -0.760888 0.310282 0.569872
vn -0.424390 0.251473 0.869839
vn -0.896115 0.319315 0.308145
vn -0.990844 0.042146 0.128056
vn 0.320597 -0.397320 0.859828
vn -0.866329 0.033570 -0.498306
vn -0.986785 0.041932 -0.156377
vn -0.529557 0.287271 -0.798120
vn -0.679495 0.275613 -0.679891
vn -0.205481 0.229102 -0.951445
vn -0.426984 0.747063 -0.509415
vn -0.174230 0.958342 -0.226234
vn -0.168645 0.771233 -0.613788
vn 0.123508 0.782311 -0.610462
vn 0.176977 0.963530 -0.200629
vn 0.506882 0.709769 -0.489120
vn 0.427320 0.746879 -0.509415
vn 0.679769 0.275185 -0.679800
vn 0.713065 0.358959 -0.602191
vn 0.986785 0.041932 -0.156377
vn 0.990905 0.041475 0.127781
vn 0.758324 0.274453 0.591235
vn 0.760796 0.310800 0.569659
vn 0.524155 0.321940 0.788415
vn 0.448286 0.588214 0.673055
vn 0.427076 0.746757 0.509812
vn 0.183721 0.954283 0.235694
vn 0.758629 -0.410138 -0.506180
vn 0.600085 -0.483108 0.637562
vn 0.739067 -0.319193 -0.593158
vn -0.978393 -0.040590 0.202582
vn -0.825678 0.378643 0.418134
vn -0.860286 0.446547 -0.245888
vn -1.000000 0.000000 0.000000
vn -0.898709 0.392621 0.195166
vn -0.934507 -0.036409 -0.354015
vn -0.946928 0.227638 -0.226936
vn 0.964568 -0.051790 0.258644
vn 0.922239 0.242897 -0.300699
vn 0.744041 0.592090 0.309519
vn 0.965636 -0.026582 -0.258431
vn 0.946867 0.227699 0.227088
vn 1.000000 0.000000 0.000000
vn 0.898740 0.392621 -0.195196
vn -0.258431 -0.051790 0.964629
vn 0.245888 0.446547 0.860286
vn -0.418134 0.378613 0.825678
vn -0.163182 0.328227 0.930357
vn 0.000000 0.000000 1.000000
vn 0.258431 -0.026582 0.965636
vn 0.295297 0.296213 0.908292
vn -0.202460 -0.040498 -0.978423
vn -0.308969 0.591418 -0.744804
vn 0.300363 0.242805 -0.922391
vn 0.000000 0.000000 -1.000000
vn 0.353740 -0.036287 -0.934629
vn -0.226722 0.227424 -0.947020
vn 0.195013 0.392254 -0.898923
vn -0.577349 -0.577349 0.577349
vn -0.408246 -0.408246 -0.816492
vn 0.408246 -0.816492 -0.408246
vn 0.816492 -0.408246 0.408246
vn -0.849269 0.515915 0.111881
vn -0.475387 0.807947 -0.348094
vn -0.336619 0.384167 0.859676
vn -0.533708 0.345347 -0.771905
vn -0.766472 -0.224982 0.601520
vn -0.766564 -0.224677 -0.601550
vn -0.340800 0.338939 0.876888
vn -0.494308 -0.487930 0.719382
vn 0.343211 -0.343669 0.874111
vn 0.490616 0.481155 0.726463
vn -0.343211 -0.343669 -0.874111
vn -0.490616 0.481124 -0.726463
vn 0.340800 0.338939 -0.876888
vn 0.494308 -0.487930 -0.719413
vn 0.847896 0.516373 0.120029
vn 0.766564 -0.224677 -0.601550
vn 0.766472 -0.224982 0.601520
vn 0.336680 0.384167 0.859645
vn 0.533769 0.345347 -0.771874
vn 0.475387 0.807947 -0.348094
vn 0.000000 1.000000 0.000000
vn 0.470290 0.809198 0.352153
vn 0.352123 0.809107 -0.470412
vn -0.352062 0.809229 0.470290
vn -0.470138 0.809229 -0.352214
vn 0.336375 0.926542 -0.168279
vn 0.168187 0.926572 0.336375
vn -0.168065 0.926511 -0.336589
vn -0.336131 0.926664 0.168157
vn 0.455824 0.764458 -0.455824
vn 0.297098 0.747398 0.594195
vn -0.594195 0.747398 -0.297098
vn -0.455824 0.764458 0.455824
vn -0.306833 -0.727439 -0.613697
vn -0.588092 0.753410 -0.294046
vn 0.450911 0.770257 -0.450911
vn 0.471511 -0.745201 -0.471511
vn -0.471511 -0.745201 0.471511
vn -0.450911 0.770257 0.450911
vn 0.613697 -0.727439 0.306833
vn 0.294046 0.753410 0.588092
vn -0.756157 0.000000 -0.654378
vn -0.992889 0.000000 0.118900
vn 0.024812 0.000000 0.999664
vn 0.756127 0.000000 0.654378
vn -0.024842 0.000000 -0.999664
vn -0.484848 0.000000 0.874569
vn -0.024812 0.000000 0.999664
vn -0.935118 0.000000 0.354320
vn 0.489456 0.000000 -0.872005
vn 0.031037 0.000000 -0.999512
vn 0.758415 0.000000 -0.651753
vn 0.484878 0.000000 -0.874569
vn 0.024842 0.000000 -0.999664
vn 0.935118 0.000000 -0.354320
vn 0.078707 0.993774 -0.078707
vn 0.104862 0.993072 0.052431
vn -0.052431 0.993072 -0.104862
vn 0.087802 0.992248 -0.087802
vn 0.116947 0.991394 0.058473
vn -0.058473 0.991394 -0.116947
vn -0.117161 -0.986145 0.117161
vn 0.077975 -0.984649 0.155980
vn -0.155980 -0.984649 -0.077975
vn 0.117161 -0.986145 -0.117161
vn -0.078707 0.993774 0.078707
vn -0.087802 0.992248 0.087802
vn 0.992889 0.000000 0.118900
vn 0.992889 0.000000 -0.118900
vn -0.992889 0.000000 -0.118900
vn 0.992798 0.000000 0.119602
vn -0.665944 0.662313 0.343211
vn 0.665944 0.662313 -0.343242
vn -0.667867 -0.668722 -0.326640
vn 0.667867 -0.668752 0.326609
usemtl trash_can
s 1
f 1/1/1 2/2/2 3/3/3
f 2/2/2 1/1/1 4/4/4
f 4/4/4 5/2/5 2/2/2
f 5/2/5 4/4/4 6/4/6
f 7/5/7 1/1/1 3/3/3
f 7/5/7 3/3/3 8/6/8
f 9/7/9 7/5/7 8/6/8
f 10/8/10 11/9/11 12/10/12
f 10/8/10 13/11/13 11/9/11
f 12/10/12 14/12/14 10/8/10
f 14/12/14 12/10/12 15/13/15
f 14/12/14 15/13/15 16/14/16
f 16/14/16 17/15/17 14/12/14
f 18/16/18 17/15/17 16/14/16
f 16/14/16 19/17/19 18/16/18
f 18/16/18 19/17/19 20/18/20
f 20/18/20 19/17/19 21/19/21
f 21/19/21 19/17/19 22/20/22
f 22/20/22 23/21/23 21/19/21
f 23/21/23 22/20/22 24/22/24
f 25/23/25 23/21/23 24/22/24
f 24/22/24 26/24/26 25/23/25
f 26/24/26 27/25/27 25/23/25
f 28/26/28 25/23/25 27/25/27
f 27/25/27 11/9/11 28/26/28
f 11/9/11 29/27/29 28/26/28
f 30/25/30 31/23/31 2/26/2
f 30/25/30 2/26/2 29/27/29
f 29/27/29 11/9/11 30/25/30
f 31/23/31 30/25/30 32/24/32
f 31/23/31 32/24/32 33/22/33
f 33/22/33 34/21/34 31/23/31
f 33/22/33 35/20/35 34/21/34
f 8/19/8 34/21/34 35/20/35
f 35/20/35 36/17/36 8/19/8
f 8/19/8 36/17/36 9/18/9
f 9/18/9 36/17/36 37/16/37
f 37/16/37 36/17/36 38/14/38
f 38/14/38 39/15/39 37/16/37
f 40/12/40 39/15/39 38/14/38
f 38/14/38 41/13/41 40/12/40
f 41/13/41 42/10/42 40/12/40
f 42/10/42 11/9/11 13/11/13
f 4/8/4 40/12/40 42/10/42
f 13/11/13 4/8/4 42/10/42
f 43/28/43 44/29/44 20/30/20
f 20/30/20 45/31/45 43/28/43
f 20/30/20 21/32/21 45/31/45
f 44/29/44 43/28/43 25/33/25
f 25/33/25 6/4/6 44/29/44
f 6/4/6 25/33/25 5/2/5
f 46/34/46 47/35/47 48/36/48
f 46/34/46 49/37/49 50/38/49
f 48/36/48 47/35/47 51/39/50
f 46/34/46 51/39/50 47/35/47
f 50/38/49 51/39/50 46/34/46
f 48/36/48 52/40/51 46/34/46
f 51/39/50 50/38/49 53/41/49
f 48/36/48 54/42/52 52/40/51
f 51/39/50 54/42/52 48/36/48
f 54/42/52 51/39/50 53/41/49
f 55/43/49 52/40/51 54/42/52
f 54/42/52 53/41/49 55/43/49
f 56/40/53 57/35/54 58/36/55
f 57/35/54 56/40/53 59/34/56
f 58/36/55 60/42/57 56/40/53
f 61/43/58 56/40/53 60/42/57
f 60/42/57 62/41/58 61/43/58
f 58/36/55 57/35/54 63/39/59
f 63/39/59 60/42/57 58/36/55
f 60/42/57 63/39/59 62/41/58
f 59/34/56 63/39/59 57/35/54
f 64/44/58 62/41/58 63/39/59
f 64/44/58 63/39/59 59/34/56
f 59/34/56 65/45/58 64/44/58
f 66/40/60 67/35/61 68/36/62
f 68/36/62 69/42/63 66/40/60
f 69/42/63 68/36/62 67/35/61
f 70/46/64 66/40/60 69/42/63
f 69/42/63 71/47/64 70/46/64
f 67/35/61 66/40/60 72/34/65
f 69/42/63 73/48/64 71/47/64
f 72/34/65 74/49/64 73/48/64
f 67/35/61 75/39/66 69/42/63
f 72/34/65 75/39/66 67/35/61
f 73/48/64 69/42/63 75/39/66
f 73/48/64 75/39/66 72/34/65
f 76/34/67 77/35/68 78/36/69
f 76/34/67 79/50/70 80/51/70
f 78/36/69 81/40/71 76/34/67
f 80/51/70 82/39/72 76/34/67
f 76/34/67 82/39/72 77/35/68
f 82/39/72 80/51/70 83/52/70
f 84/42/73 78/36/69 77/35/68
f 78/36/69 84/42/73 81/40/71
f 77/35/68 82/39/72 84/42/73
f 83/52/70 84/42/73 82/39/72
f 85/53/70 81/40/71 84/42/73
f 84/42/73 83/52/70 85/53/70
f 86/54/74 87/55/75 88/56/76
f 88/56/76 89/57/77 86/54/74
f 90/58/78 11/59/11 27/60/27
f 12/61/12 11/59/11 90/58/78
f 27/60/27 91/62/79 90/58/78
f 90/58/78 92/63/80 12/61/12
f 27/60/27 93/64/81 91/62/79
f 15/65/15 12/61/12 92/63/80
f 93/64/81 27/60/27 26/66/26
f 16/67/16 15/65/15 92/63/80
f 93/64/81 26/66/26 24/68/24
f 92/63/80 94/69/82 16/67/16
f 16/67/16 94/69/82 19/70/19
f 24/68/24 95/71/83 93/64/81
f 24/68/24 22/72/22 95/71/83
f 96/73/84 97/74/85 98/75/86
f 98/75/86 99/76/87 96/73/84
f 100/75/88 101/76/89 102/73/90
f 102/73/90 103/74/91 100/75/88
f 104/77/92 36/78/36 35/79/35
f 35/79/35 105/80/93 104/77/92
f 104/77/92 106/81/94 36/78/36
f 107/82/95 106/81/94 104/77/92
f 104/77/92 105/80/93 108/83/96
f 108/83/96 109/84/97 104/77/92
f 110/85/98 111/86/99 112/87/100
f 110/85/98 113/86/101 111/87/99
f 110/85/98 114/86/102 113/87/101
f 22/79/22 19/78/19 90/77/78
f 90/77/78 95/80/83 22/79/22
f 19/78/19 94/81/82 90/77/78
f 90/77/78 94/81/82 92/82/80
f 93/83/81 95/80/83 90/77/78
f 93/83/81 90/77/78 91/84/79
f 110/88/98 112/89/100 114/90/102
f 30/60/30 11/59/11 104/58/92
f 104/58/92 109/62/97 30/60/30
f 109/62/97 108/64/96 30/60/30
f 32/66/32 30/60/30 108/64/96
f 33/68/33 32/66/32 108/64/96
f 108/64/96 105/71/93 33/68/33
f 33/68/33 105/71/93 35/72/35
f 42/61/42 107/63/95 104/58/92
f 104/58/92 11/59/11 42/61/42
f 107/63/95 42/61/42 41/65/41
f 107/63/95 41/65/41 38/67/38
f 38/67/38 106/69/94 107/63/95
f 38/67/38 36/70/36 106/69/94
f 115/91/103 112/87/100 111/86/99
f 111/86/99 116/92/104 115/91/103
f 112/93/100 115/92/103 117/91/105
f 117/91/105 114/94/102 112/93/100
f 116/91/104 111/87/99 113/86/101
f 113/86/101 118/92/106 116/91/104
f 118/91/106 113/87/101 114/86/102
f 114/86/102 117/92/105 118/91/106
f 89/95/77 88/96/76 119/97/107
f 119/97/107 120/98/108 89/95/77
f 119/97/107 88/96/76 87/95/75
f 87/95/75 121/98/109 119/97/107
f 86/95/74 122/98/110 121/97/109
f 121/97/109 87/96/75 86/95/74
f 120/97/108 122/98/110 86/95/74
f 86/95/74 89/96/77 120/97/108
f 123/95/111 124/98/112 125/97/113
f 125/97/113 126/96/114 123/95/111
f 124/97/112 123/96/111 127/95/115
f 127/95/115 128/98/116 124/97/112
f 129/95/117 126/96/114 125/97/113
f 125/97/113 130/98/118 129/95/117
f 127/95/115 129/96/117 130/97/118
f 130/97/118 128/98/116 127/95/115
f 131/99/119 132/100/120 133/101/120
f 133/101/120 134/102/119 131/99/119
f 20/103/20 44/104/44 17/105/17
f 17/105/17 18/106/18 20/103/20
f 14/107/14 17/105/17 44/104/44
f 44/104/44 6/108/6 14/107/14
f 10/109/10 14/107/14 6/108/6
f 13/110/13 10/109/10 6/108/6
f 8/111/8 3/112/3 34/113/34
f 31/114/31 34/113/34 3/112/3
f 3/112/3 2/115/2 31/114/31
f 135/116/121 136/117/121 137/118/122
f 137/118/122 138/119/122 135/116/121
f 139/116/123 140/117/123 131/118/119
f 131/118/119 134/119/119 139/116/123
f 141/118/124 142/117/125 143/116/125
f 143/116/125 144/119/126 141/118/124
f 145/120/127 146/121/128 147/122/128
f 147/122/128 148/123/129 145/120/127
f 149/118/130 150/117/131 151/116/131
f 151/116/131 152/119/132 149/118/130
f 125/124/113 153/125/133 154/126/134
f 154/126/134 130/127/118 125/124/113
f 155/126/135 153/125/133 125/124/113
f 125/124/113 124/127/112 155/126/135
f 119/124/107 156/125/136 157/126/137
f 157/126/137 120/127/108 119/124/107
f 158/126/138 156/125/136 119/124/107
f 119/124/107 121/127/109 158/126/138
f 127/128/115 159/129/139 160/130/140
f 160/130/140 129/131/117 127/128/115
f 161/130/141 159/129/139 127/128/115
f 127/128/115 123/131/111 161/130/141
f 162/130/142 161/129/141 123/128/111
f 123/128/111 126/131/114 162/130/142
f 163/126/143 155/125/135 124/124/112
f 124/124/112 128/127/116 163/126/143
f 164/126/144 158/125/138 121/124/109
f 121/124/109 122/127/110 164/126/144
f 120/124/108 157/125/137 164/126/144
f 164/126/144 122/127/110 120/124/108
f 130/124/118 154/125/134 163/126/143
f 163/126/143 128/127/116 130/124/118
f 129/128/117 160/129/140 162/130/142
f 162/130/142 126/131/114 129/128/117
f 165/100/145 149/99/130 152/102/132
f 152/102/132 166/101/145 165/100/145
f 137/99/122 167/100/146 168/101/146
f 168/101/146 138/102/122 137/99/122
f 169/100/147 141/99/124 144/102/126
f 144/102/126 170/101/147 169/100/147
f 171/132/148 145/133/127 148/134/129
f 7/135/7 37/106/37 39/105/39
f 37/106/37 7/135/7 9/103/9
f 7/135/7 39/105/39 40/107/40
f 40/107/40 1/136/1 7/135/7
f 1/136/1 40/107/40 4/109/4
f 6/108/6 4/109/4 13/110/13
f 2/115/2 5/115/5 29/137/29
f 43/138/43 23/113/23 25/114/25
f 23/113/23 43/138/43 45/139/45
f 45/139/45 21/111/21 23/113/23
f 28/140/28 5/115/5 25/114/25
f 5/115/5 28/140/28 29/137/29
f 96/141/84 172/142/149 97/74/85
f 172/143/149 96/144/84 99/145/87
f 173/143/150 102/144/90 101/145/89
f 102/141/90 173/142/150 103/74/91
f 100/146/88 174/147/151 101/148/89
f 174/149/151 100/150/88 103/151/91
f 98/146/86 175/147/152 99/148/87
f 175/149/152 98/150/86 97/151/85
